<?xml version="1.0" encoding="utf-8"?>
<!-- Generator: Adobe Illustrator 25.2.0, SVG Export Plug-In . SVG Version: 6.00 Build 0)  -->
<svg version="1.1" id="Ebene_1" xmlns="http://www.w3.org/2000/svg" xmlns:xlink="http://www.w3.org/1999/xlink" x="0px" y="0px"
	 viewBox="0 0 279.93 256.5" style="enable-background:new 0 0 279.93 256.5;" xml:space="preserve">
<style type="text/css">
	.st0{fill:#FFFFFF;}
</style>
<g>
	<path class="st0" d="M77.66,119.3H59.99V59.65h17.67V119.3z M68.84,50.92c5.93,0,10.23-3.86,10.23-9.24c0-5.42-4.3-9.24-10.23-9.24
		s-10.23,3.82-10.23,9.24C58.61,47.06,62.92,50.92,68.84,50.92z M111.1,120.74c8.13,0,13.75-3.78,18.73-9.72h0.44l1.27,8.27h14.42
		V59.65h-17.67v39.48c-3.45,4.69-6.16,6.56-10.6,6.56c-5.1,0-7.41-2.69-7.41-11.27V59.65H92.6v37.03
		C92.6,111.59,98.13,120.74,111.1,120.74z M61.65,150.06v-13.1h-1.67v13.1H61.65z M68.4,141.82l4.74,8.24h1.72v-13.1h-1.58v6.78
		c0,1.37,0.13,2.85,0.21,4.17h-0.08L72,145.2l-4.74-8.24h-1.72v13.1h1.58v-6.86c0-1.37-0.13-2.77-0.21-4.09h0.08L68.4,141.82z
		 M77.51,138.37h3.96v11.69h1.67v-11.69h3.96v-1.41h-9.59V138.37z M97.49,148.65H91.4v-4.76h4.96v-1.41H91.4v-4.11h5.88v-1.41h-7.55
		v13.1h7.75V148.65z M104.58,144.52h-2.37v5.54h-1.67v-13.1h4.1c2.67,0,4.59,0.96,4.59,3.69c0,2.04-1.17,3.25-2.95,3.68l3.34,5.73
		h-1.89L104.58,144.52z M104.41,143.17c2.04,0,3.16-0.83,3.16-2.52c0-1.72-1.12-2.33-3.16-2.33h-2.2v4.86H104.41z M115.07,141.82
		l4.74,8.24h1.72v-13.1h-1.58v6.78c0,1.37,0.13,2.85,0.21,4.17h-0.08l-1.41-2.71l-4.74-8.24h-1.72v13.1h1.58v-6.86
		c0-1.37-0.13-2.77-0.21-4.09h0.08L115.07,141.82z M129.99,136.96l4.43,13.1h-1.77l-1.25-3.99h-4.78l-1.26,3.99h-1.7l4.43-13.1
		H129.99z M130.37,142.74c-0.47-1.46-0.89-2.9-1.31-4.42h-0.08c-0.41,1.52-0.83,2.95-1.3,4.42l-0.63,2h3.94L130.37,142.74z
		 M139.86,150.06v-11.69h3.96v-1.41h-9.59v1.41h3.96v11.69H139.86z M148.13,136.96h-1.67v13.1h1.67V136.96z M162.45,143.46
		c0,4.2-2.31,6.84-5.6,6.84c-3.29,0-5.6-2.64-5.6-6.84c0-4.2,2.31-6.74,5.6-6.74C160.14,136.72,162.45,139.27,162.45,143.46z
		 M160.72,143.46c0-3.26-1.54-5.28-3.88-5.28c-2.34,0-3.88,2.01-3.88,5.28c0,3.26,1.54,5.37,3.88,5.37
		C159.18,148.84,160.72,146.73,160.72,143.46z M167.14,143.2c0-1.37-0.13-2.77-0.21-4.09h0.08l1.41,2.71l4.74,8.24h1.72v-13.1h-1.58
		v6.78c0,1.37,0.13,2.85,0.21,4.17h-0.08l-1.41-2.71l-4.74-8.24h-1.72v13.1h1.58V143.2z M183.34,136.96l4.43,13.1H186l-1.25-3.99
		h-4.78l-1.26,3.99h-1.7l4.43-13.1H183.34z M183.72,142.74c-0.47-1.46-0.89-2.9-1.31-4.42h-0.08c-0.41,1.52-0.82,2.95-1.3,4.42
		l-0.63,2h3.94L183.72,142.74z M197.22,148.65h-5.72v-11.69h-1.67v13.1h7.39V148.65z M67.75,167.98c0,3.15-1.37,4.14-3.11,4.14
		c-1.71,0-3.04-0.99-3.04-4.14v-7.74h-1.67v7.69c0,4.21,2.03,5.65,4.71,5.65s4.7-1.45,4.7-5.65v-7.69h-1.6V167.98z M80.9,167.02
		c0,1.37,0.13,2.85,0.21,4.17h-0.08l-1.41-2.71l-4.74-8.24h-1.72v13.1h1.58v-6.86c0-1.37-0.13-2.77-0.21-4.09h0.08l1.41,2.71
		l4.74,8.24h1.72v-13.1H80.9V167.02z M86.36,173.34h1.67v-13.1h-1.67V173.34z M95.34,171.65h-0.08c-0.48-1.54-0.8-2.79-1.26-4.33
		l-2.12-7.08h-1.77l4.19,13.1h1.93l4.16-13.1h-1.7l-2.1,7.08C96.15,168.86,95.83,170.11,95.34,171.65z M110.16,171.93h-6.08v-4.76
		h4.96v-1.41h-4.96v-4.11h5.88v-1.41h-7.55v13.1h7.75V171.93z M122.3,173.34h-1.89l-3.15-5.54h-2.37v5.54h-1.67v-13.1h4.1
		c2.67,0,4.58,0.96,4.58,3.69c0,2.04-1.17,3.25-2.95,3.68L122.3,173.34z M120.24,163.93c0-1.72-1.12-2.34-3.16-2.34h-2.2v4.86h2.2
		C119.12,166.45,120.24,165.62,120.24,163.93z M129.99,166.35l-1.87-0.81c-1.03-0.43-2.17-0.91-2.17-2.17
		c0-1.17,0.97-1.91,2.44-1.91c1.21,0,2.17,0.47,2.97,1.23l0.88-1.07c-0.92-0.95-2.3-1.62-3.86-1.62c-2.38,0-4.12,1.48-4.12,3.48
		c0,1.93,1.43,2.85,2.65,3.37l1.88,0.83c1.24,0.54,2.18,0.97,2.18,2.3c0,1.27-1.02,2.13-2.74,2.13c-1.36,0-2.67-0.64-3.61-1.62
		l-1,1.15c1.14,1.19,2.74,1.94,4.58,1.94c2.76,0,4.46-1.65,4.46-3.72C132.69,167.91,131.51,167,129.99,166.35z M137.21,160.24h-1.67
		v13.1h1.67V160.24z M145.49,173.34v-11.69h3.96v-1.41h-9.59v1.41h3.96v11.69H145.49z M156.12,163.94c-0.4,0.97-0.86,1.88-1.31,2.86
		h-0.08c-0.45-0.98-0.85-1.89-1.27-2.86l-1.69-3.7h-1.78l3.94,8.03v5.08h1.67v-5.08l3.94-8.03h-1.73L156.12,163.94z M176.11,166.74
		c0,4.2-2.31,6.84-5.6,6.84c-3.29,0-5.6-2.64-5.6-6.84c0-4.2,2.31-6.74,5.6-6.74C173.8,160,176.11,162.55,176.11,166.74z
		 M174.39,166.74c0-3.26-1.54-5.28-3.88-5.28s-3.88,2.01-3.88,5.28s1.54,5.37,3.88,5.37S174.39,170.01,174.39,166.74z
		 M179.22,173.34h1.67v-5.86h4.99v-1.41h-4.99v-4.42h5.89v-1.41h-7.56V173.34z M64.56,183.52l4.43,13.1h-1.77l-1.25-3.99h-4.78
		l-1.26,3.99h-1.7l4.43-13.1H64.56z M64.94,189.3c-0.47-1.46-0.89-2.9-1.31-4.42h-0.08c-0.41,1.52-0.83,2.95-1.3,4.42l-0.63,2h3.94
		L64.94,189.3z M79.72,187.37c0,2.76-1.97,4.05-4.84,4.05h-2.15v5.2h-1.67v-13.1h3.74C77.74,183.52,79.72,184.5,79.72,187.37z
		 M78.06,187.37c0-1.89-1.16-2.51-3.46-2.51h-1.86v5.2h1.94C76.96,190.07,78.06,189.24,78.06,187.37z M91.31,187.37
		c0,2.76-1.97,4.05-4.84,4.05h-2.15v5.2h-1.67v-13.1h3.74C89.33,183.52,91.31,184.5,91.31,187.37z M89.65,187.37
		c0-1.89-1.16-2.51-3.46-2.51h-1.86v5.2h1.94C88.56,190.07,89.65,189.24,89.65,187.37z M95.91,183.52h-1.67v13.1h7.39v-1.41h-5.72
		V183.52z M104.24,196.62h1.67v-13.1h-1.67V196.62z M111.46,190.44h4.96v-1.41h-4.96v-4.11h5.88v-1.41h-7.55v13.1h7.75v-1.41h-6.08
		V190.44z M130.07,190.02c0,4.16-2.16,6.6-6.11,6.6h-3.35v-13.1h3.28C127.91,183.52,130.07,185.86,130.07,190.02z M128.35,190.02
		c0-3.31-1.53-5.14-4.59-5.14h-1.49v10.37h1.49C126.82,195.25,128.35,193.33,128.35,190.02z M142.86,189.63l-1.87-0.81
		c-1.03-0.44-2.17-0.91-2.17-2.17c0-1.17,0.97-1.91,2.44-1.91c1.21,0,2.17,0.47,2.97,1.23l0.88-1.07c-0.92-0.95-2.31-1.62-3.86-1.62
		c-2.38,0-4.12,1.48-4.12,3.48c0,1.93,1.43,2.85,2.65,3.37l1.88,0.83c1.24,0.54,2.19,0.97,2.19,2.31c0,1.27-1.02,2.13-2.74,2.13
		c-1.36,0-2.67-0.65-3.62-1.62l-1,1.14c1.15,1.2,2.74,1.94,4.58,1.94c2.75,0,4.46-1.65,4.46-3.72
		C145.56,191.19,144.38,190.28,142.86,189.63z M153.43,195.39c-2.48,0-4.06-2.06-4.06-5.36c0-3.26,1.65-5.29,4.12-5.29
		c1.11,0,1.97,0.5,2.66,1.24l0.91-1.09c-0.77-0.84-2.01-1.62-3.6-1.62c-3.33,0-5.81,2.58-5.81,6.8c0,4.26,2.45,6.78,5.71,6.78
		c1.7,0,2.99-0.69,4.02-1.89l-0.91-1.05C155.63,194.85,154.68,195.39,153.43,195.39z M160.11,196.62h1.67v-13.1h-1.67V196.62z
		 M167.32,190.44h4.96v-1.41h-4.96v-4.11h5.88v-1.41h-7.55v13.1h7.75v-1.41h-6.08V190.44z M184.21,190.3c0,1.37,0.13,2.85,0.21,4.17
		h-0.08l-1.41-2.71l-4.74-8.24h-1.72v13.1h1.58v-6.86c0-1.37-0.13-2.77-0.21-4.09h0.08l1.41,2.71l4.74,8.24h1.72v-13.1h-1.58V190.3z
		 M194.69,195.39c-2.48,0-4.06-2.06-4.06-5.36c0-3.26,1.65-5.29,4.12-5.29c1.11,0,1.97,0.5,2.66,1.24l0.91-1.09
		c-0.77-0.84-2.01-1.62-3.6-1.62c-3.32,0-5.81,2.58-5.81,6.8c0,4.26,2.45,6.78,5.71,6.78c1.7,0,2.99-0.69,4.02-1.89l-0.91-1.05
		C196.89,194.85,195.94,195.39,194.69,195.39z M203.04,190.44H208v-1.41h-4.96v-4.11h5.88v-1.41h-7.55v13.1h7.75v-1.41h-6.08V190.44
		z M217.58,189.63l-1.87-0.81c-1.03-0.44-2.17-0.91-2.17-2.17c0-1.17,0.97-1.91,2.44-1.91c1.21,0,2.17,0.47,2.97,1.23l0.88-1.07
		c-0.92-0.95-2.31-1.62-3.86-1.62c-2.38,0-4.12,1.48-4.12,3.48c0,1.93,1.43,2.85,2.65,3.37l1.88,0.83c1.24,0.54,2.19,0.97,2.19,2.31
		c0,1.27-1.02,2.13-2.74,2.13c-1.36,0-2.67-0.65-3.62-1.62l-1,1.14c1.15,1.2,2.74,1.94,4.58,1.94c2.75,0,4.46-1.65,4.46-3.72
		C220.28,191.19,219.1,190.28,217.58,189.63z"/>
</g>
</svg>
